<mxfile host="drawio-plugin" modified="2024-03-08T09:29:49.634Z" agent="5.0 (Windows NT 10.0; Win64; x64) AppleWebKit/537.36 (KHTML, like Gecko) Chrome/111.0.0.0 Safari/537.36" etag="ueasKtx0mgJ_MRdib2-x" version="20.5.3" type="embed"><diagram name="Страница — 1" id="8VdXoSXOcOiXIlTusOmZ"><mxGraphModel dx="2238" dy="1378" grid="1" gridSize="10" guides="0" tooltips="1" connect="1" arrows="1" fold="1" page="0" pageScale="1" pageWidth="827" pageHeight="1169" math="0" shadow="0"><root><mxCell id="0"/><mxCell id="1" parent="0"/><mxCell id="aY1j8prLThrJ-g-cgl9k-35" style="edgeStyle=orthogonalEdgeStyle;rounded=0;orthogonalLoop=1;jettySize=auto;html=1;exitX=0.5;exitY=0;exitDx=0;exitDy=0;entryX=0.5;entryY=1;entryDx=0;entryDy=0;dashed=1;labelBackgroundColor=default;" parent="1" source="aY1j8prLThrJ-g-cgl9k-3" target="aY1j8prLThrJ-g-cgl9k-7" edge="1"><mxGeometry relative="1" as="geometry"/></mxCell><mxCell id="aY1j8prLThrJ-g-cgl9k-3" value="Priority Queue" style="html=1;whiteSpace=wrap;fillColor=#d5e8d4;strokeColor=#82b366;rounded=0;labelBackgroundColor=default;" parent="1" vertex="1"><mxGeometry x="480" y="519" width="120" height="20" as="geometry"/></mxCell><mxCell id="aY1j8prLThrJ-g-cgl9k-32" style="edgeStyle=orthogonalEdgeStyle;rounded=0;orthogonalLoop=1;jettySize=auto;html=1;exitX=0.5;exitY=0;exitDx=0;exitDy=0;entryX=1;entryY=0.5;entryDx=0;entryDy=0;labelBackgroundColor=default;" parent="1" source="aY1j8prLThrJ-g-cgl9k-4" target="aY1j8prLThrJ-g-cgl9k-16" edge="1"><mxGeometry relative="1" as="geometry"/></mxCell><mxCell id="aY1j8prLThrJ-g-cgl9k-4" value="Set" style="html=1;whiteSpace=wrap;fillColor=#dae8fc;strokeColor=#6c8ebf;rounded=0;labelBackgroundColor=default;" parent="1" vertex="1"><mxGeometry x="800" y="519" width="120" height="20" as="geometry"/></mxCell><mxCell id="aY1j8prLThrJ-g-cgl9k-49" style="edgeStyle=orthogonalEdgeStyle;rounded=0;orthogonalLoop=1;jettySize=auto;html=1;exitX=0.5;exitY=0;exitDx=0;exitDy=0;entryX=0.5;entryY=1;entryDx=0;entryDy=0;labelBackgroundColor=default;" parent="1" source="aY1j8prLThrJ-g-cgl9k-5" target="aY1j8prLThrJ-g-cgl9k-13" edge="1"><mxGeometry relative="1" as="geometry"/></mxCell><mxCell id="aY1j8prLThrJ-g-cgl9k-5" value="LinkedHashSet" style="html=1;whiteSpace=wrap;fillColor=#d5e8d4;strokeColor=#82b366;rounded=0;labelBackgroundColor=default;" parent="1" vertex="1"><mxGeometry x="880" y="639" width="120" height="20" as="geometry"/></mxCell><mxCell id="aY1j8prLThrJ-g-cgl9k-47" style="edgeStyle=orthogonalEdgeStyle;rounded=0;orthogonalLoop=1;jettySize=auto;html=1;exitX=0.5;exitY=0;exitDx=0;exitDy=0;entryX=0.5;entryY=1;entryDx=0;entryDy=0;labelBackgroundColor=default;" parent="1" source="aY1j8prLThrJ-g-cgl9k-6" target="aY1j8prLThrJ-g-cgl9k-14" edge="1"><mxGeometry relative="1" as="geometry"/></mxCell><mxCell id="aY1j8prLThrJ-g-cgl9k-6" value="TreeSet" style="html=1;whiteSpace=wrap;fillColor=#d5e8d4;strokeColor=#82b366;rounded=0;labelBackgroundColor=default;" parent="1" vertex="1"><mxGeometry x="720" y="639" width="120" height="20" as="geometry"/></mxCell><mxCell id="aY1j8prLThrJ-g-cgl9k-31" style="edgeStyle=orthogonalEdgeStyle;rounded=0;orthogonalLoop=1;jettySize=auto;html=1;exitX=0.5;exitY=0;exitDx=0;exitDy=0;entryX=0.5;entryY=1;entryDx=0;entryDy=0;labelBackgroundColor=default;" parent="1" source="aY1j8prLThrJ-g-cgl9k-7" target="aY1j8prLThrJ-g-cgl9k-16" edge="1"><mxGeometry relative="1" as="geometry"/></mxCell><mxCell id="aY1j8prLThrJ-g-cgl9k-7" value="Queue" style="html=1;whiteSpace=wrap;fillColor=#dae8fc;strokeColor=#6c8ebf;rounded=0;labelBackgroundColor=default;" parent="1" vertex="1"><mxGeometry x="400" y="459" width="120" height="20" as="geometry"/></mxCell><mxCell id="aY1j8prLThrJ-g-cgl9k-34" style="edgeStyle=orthogonalEdgeStyle;rounded=0;orthogonalLoop=1;jettySize=auto;html=1;exitX=0.5;exitY=0;exitDx=0;exitDy=0;entryX=0.5;entryY=1;entryDx=0;entryDy=0;dashed=1;labelBackgroundColor=default;" parent="1" source="aY1j8prLThrJ-g-cgl9k-8" target="aY1j8prLThrJ-g-cgl9k-7" edge="1"><mxGeometry relative="1" as="geometry"/></mxCell><mxCell id="aY1j8prLThrJ-g-cgl9k-8" value="Deque" style="html=1;whiteSpace=wrap;fillColor=#dae8fc;strokeColor=#6c8ebf;rounded=0;labelBackgroundColor=default;" parent="1" vertex="1"><mxGeometry x="320" y="519" width="120" height="20" as="geometry"/></mxCell><mxCell id="aY1j8prLThrJ-g-cgl9k-40" style="edgeStyle=orthogonalEdgeStyle;rounded=0;orthogonalLoop=1;jettySize=auto;html=1;exitX=0.5;exitY=0;exitDx=0;exitDy=0;entryX=0;entryY=0.5;entryDx=0;entryDy=0;dashed=1;labelBackgroundColor=default;" parent="1" source="aY1j8prLThrJ-g-cgl9k-9" target="aY1j8prLThrJ-g-cgl9k-10" edge="1"><mxGeometry relative="1" as="geometry"/></mxCell><mxCell id="aY1j8prLThrJ-g-cgl9k-9" value="ArrayList" style="html=1;whiteSpace=wrap;fillColor=#d5e8d4;strokeColor=#82b366;rounded=0;labelBackgroundColor=default;" parent="1" vertex="1"><mxGeometry x="-160" y="579" width="120" height="20" as="geometry"/></mxCell><mxCell id="aY1j8prLThrJ-g-cgl9k-33" style="edgeStyle=orthogonalEdgeStyle;rounded=0;orthogonalLoop=1;jettySize=auto;html=1;exitX=0.5;exitY=0;exitDx=0;exitDy=0;entryX=0;entryY=0.5;entryDx=0;entryDy=0;labelBackgroundColor=default;" parent="1" source="aY1j8prLThrJ-g-cgl9k-10" target="aY1j8prLThrJ-g-cgl9k-16" edge="1"><mxGeometry relative="1" as="geometry"/></mxCell><mxCell id="aY1j8prLThrJ-g-cgl9k-10" value="List" style="html=1;whiteSpace=wrap;fillColor=#dae8fc;strokeColor=#6c8ebf;rounded=0;labelBackgroundColor=default;" parent="1" vertex="1"><mxGeometry y="519" width="120" height="20" as="geometry"/></mxCell><mxCell id="aY1j8prLThrJ-g-cgl9k-39" style="edgeStyle=orthogonalEdgeStyle;rounded=0;orthogonalLoop=1;jettySize=auto;html=1;exitX=0.5;exitY=0;exitDx=0;exitDy=0;entryX=0.5;entryY=1;entryDx=0;entryDy=0;dashed=1;labelBackgroundColor=default;" parent="1" source="aY1j8prLThrJ-g-cgl9k-11" target="aY1j8prLThrJ-g-cgl9k-10" edge="1"><mxGeometry relative="1" as="geometry"/></mxCell><mxCell id="aY1j8prLThrJ-g-cgl9k-11" value="Vector" style="html=1;whiteSpace=wrap;fillColor=#d5e8d4;strokeColor=#82b366;rounded=0;labelBackgroundColor=default;" parent="1" vertex="1"><mxGeometry y="579" width="120" height="20" as="geometry"/></mxCell><mxCell id="aY1j8prLThrJ-g-cgl9k-41" style="edgeStyle=orthogonalEdgeStyle;rounded=0;orthogonalLoop=1;jettySize=auto;html=1;exitX=0.5;exitY=0;exitDx=0;exitDy=0;entryX=0.5;entryY=1;entryDx=0;entryDy=0;labelBackgroundColor=default;" parent="1" source="aY1j8prLThrJ-g-cgl9k-12" target="aY1j8prLThrJ-g-cgl9k-11" edge="1"><mxGeometry relative="1" as="geometry"/></mxCell><mxCell id="aY1j8prLThrJ-g-cgl9k-12" value="Stack" style="html=1;whiteSpace=wrap;fillColor=#d5e8d4;strokeColor=#82b366;rounded=0;labelBackgroundColor=default;" parent="1" vertex="1"><mxGeometry y="639" width="120" height="20" as="geometry"/></mxCell><mxCell id="aY1j8prLThrJ-g-cgl9k-50" style="edgeStyle=orthogonalEdgeStyle;rounded=0;orthogonalLoop=1;jettySize=auto;html=1;exitX=0.5;exitY=0;exitDx=0;exitDy=0;entryX=1;entryY=0.5;entryDx=0;entryDy=0;dashed=1;labelBackgroundColor=default;" parent="1" source="aY1j8prLThrJ-g-cgl9k-13" target="aY1j8prLThrJ-g-cgl9k-4" edge="1"><mxGeometry relative="1" as="geometry"/></mxCell><mxCell id="aY1j8prLThrJ-g-cgl9k-13" value="HashSet" style="html=1;whiteSpace=wrap;fillColor=#d5e8d4;strokeColor=#82b366;rounded=0;labelBackgroundColor=default;" parent="1" vertex="1"><mxGeometry x="880" y="579" width="120" height="20" as="geometry"/></mxCell><mxCell id="aY1j8prLThrJ-g-cgl9k-48" style="edgeStyle=orthogonalEdgeStyle;rounded=0;orthogonalLoop=1;jettySize=auto;html=1;exitX=0.5;exitY=0;exitDx=0;exitDy=0;entryX=0;entryY=0.5;entryDx=0;entryDy=0;labelBackgroundColor=default;" parent="1" source="aY1j8prLThrJ-g-cgl9k-14" target="aY1j8prLThrJ-g-cgl9k-4" edge="1"><mxGeometry relative="1" as="geometry"/></mxCell><mxCell id="aY1j8prLThrJ-g-cgl9k-14" value="SortedSet" style="html=1;whiteSpace=wrap;fillColor=#dae8fc;strokeColor=#6c8ebf;rounded=0;labelBackgroundColor=default;" parent="1" vertex="1"><mxGeometry x="720" y="579" width="120" height="20" as="geometry"/></mxCell><mxCell id="aY1j8prLThrJ-g-cgl9k-15" value="Iterable" style="fillColor=#dae8fc;strokeColor=#6c8ebf;rounded=0;gradientColor=none;glass=0;sketch=0;shadow=0;fontColor=default;labelBackgroundColor=default;labelBorderColor=none;whiteSpace=wrap;html=1;" parent="1" vertex="1"><mxGeometry x="400" y="339" width="120" height="20" as="geometry"/></mxCell><mxCell id="aY1j8prLThrJ-g-cgl9k-30" style="edgeStyle=orthogonalEdgeStyle;rounded=0;orthogonalLoop=1;jettySize=auto;html=1;exitX=0.5;exitY=0;exitDx=0;exitDy=0;entryX=0.5;entryY=1;entryDx=0;entryDy=0;labelBackgroundColor=default;" parent="1" source="aY1j8prLThrJ-g-cgl9k-16" target="aY1j8prLThrJ-g-cgl9k-15" edge="1"><mxGeometry relative="1" as="geometry"/></mxCell><mxCell id="aY1j8prLThrJ-g-cgl9k-16" value="Collection" style="html=1;whiteSpace=wrap;fillColor=#dae8fc;strokeColor=#6c8ebf;rounded=0;labelBackgroundColor=default;" parent="1" vertex="1"><mxGeometry x="400" y="399" width="120" height="20" as="geometry"/></mxCell><mxCell id="aY1j8prLThrJ-g-cgl9k-37" style="edgeStyle=orthogonalEdgeStyle;rounded=0;orthogonalLoop=1;jettySize=auto;html=1;exitX=0.5;exitY=0;exitDx=0;exitDy=0;entryX=0;entryY=0.5;entryDx=0;entryDy=0;labelBackgroundColor=default;" parent="1" source="aY1j8prLThrJ-g-cgl9k-17" target="aY1j8prLThrJ-g-cgl9k-8" edge="1"><mxGeometry relative="1" as="geometry"/></mxCell><mxCell id="aY1j8prLThrJ-g-cgl9k-38" style="edgeStyle=orthogonalEdgeStyle;rounded=0;orthogonalLoop=1;jettySize=auto;html=1;exitX=0.5;exitY=0;exitDx=0;exitDy=0;entryX=1;entryY=0.5;entryDx=0;entryDy=0;dashed=1;labelBackgroundColor=default;" parent="1" source="aY1j8prLThrJ-g-cgl9k-17" target="aY1j8prLThrJ-g-cgl9k-10" edge="1"><mxGeometry relative="1" as="geometry"/></mxCell><mxCell id="aY1j8prLThrJ-g-cgl9k-17" value="LinkedList" style="html=1;whiteSpace=wrap;fillColor=#d5e8d4;strokeColor=#82b366;rounded=0;labelBackgroundColor=default;" parent="1" vertex="1"><mxGeometry x="160" y="579" width="120" height="20" as="geometry"/></mxCell><mxCell id="aY1j8prLThrJ-g-cgl9k-36" style="edgeStyle=orthogonalEdgeStyle;rounded=0;orthogonalLoop=1;jettySize=auto;html=1;exitX=0.5;exitY=0;exitDx=0;exitDy=0;entryX=0.5;entryY=1;entryDx=0;entryDy=0;labelBackgroundColor=default;" parent="1" source="aY1j8prLThrJ-g-cgl9k-18" target="aY1j8prLThrJ-g-cgl9k-8" edge="1"><mxGeometry relative="1" as="geometry"/></mxCell><mxCell id="aY1j8prLThrJ-g-cgl9k-18" value="ArrayDeque" style="html=1;whiteSpace=wrap;fillColor=#d5e8d4;strokeColor=#82b366;rounded=0;labelBackgroundColor=default;" parent="1" vertex="1"><mxGeometry x="320" y="579" width="120" height="20" as="geometry"/></mxCell><mxCell id="aY1j8prLThrJ-g-cgl9k-43" style="edgeStyle=orthogonalEdgeStyle;rounded=0;orthogonalLoop=1;jettySize=auto;html=1;exitX=0.5;exitY=0;exitDx=0;exitDy=0;entryX=0.5;entryY=1;entryDx=0;entryDy=0;labelBackgroundColor=default;" parent="1" source="aY1j8prLThrJ-g-cgl9k-19" target="aY1j8prLThrJ-g-cgl9k-23" edge="1"><mxGeometry relative="1" as="geometry"/></mxCell><mxCell id="aY1j8prLThrJ-g-cgl9k-19" value="LinkedHashMap" style="html=1;whiteSpace=wrap;fillColor=#d5e8d4;strokeColor=#82b366;rounded=0;labelBackgroundColor=default;" parent="1" vertex="1"><mxGeometry x="320" y="759" width="120" height="20" as="geometry"/></mxCell><mxCell id="aY1j8prLThrJ-g-cgl9k-44" style="edgeStyle=orthogonalEdgeStyle;rounded=0;orthogonalLoop=1;jettySize=auto;html=1;exitX=0.5;exitY=0;exitDx=0;exitDy=0;labelBackgroundColor=default;" parent="1" source="aY1j8prLThrJ-g-cgl9k-20" edge="1"><mxGeometry relative="1" as="geometry"><mxPoint x="460" y="719" as="targetPoint"/></mxGeometry></mxCell><mxCell id="aY1j8prLThrJ-g-cgl9k-20" value="SortedSet" style="html=1;whiteSpace=wrap;fillColor=#d5e8d4;strokeColor=#82b366;rounded=0;labelBackgroundColor=default;" parent="1" vertex="1"><mxGeometry x="480" y="759" width="120" height="20" as="geometry"/></mxCell><mxCell id="aY1j8prLThrJ-g-cgl9k-23" value="Map" style="html=1;whiteSpace=wrap;fillColor=#dae8fc;strokeColor=#6c8ebf;rounded=0;labelBackgroundColor=default;" parent="1" vertex="1"><mxGeometry x="400" y="699" width="120" height="20" as="geometry"/></mxCell><mxCell id="aY1j8prLThrJ-g-cgl9k-42" style="edgeStyle=orthogonalEdgeStyle;rounded=0;orthogonalLoop=1;jettySize=auto;html=1;exitX=0.5;exitY=0;exitDx=0;exitDy=0;entryX=0;entryY=0.5;entryDx=0;entryDy=0;labelBackgroundColor=default;" parent="1" source="aY1j8prLThrJ-g-cgl9k-24" target="aY1j8prLThrJ-g-cgl9k-23" edge="1"><mxGeometry relative="1" as="geometry"/></mxCell><mxCell id="aY1j8prLThrJ-g-cgl9k-24" value="HashTable" style="html=1;whiteSpace=wrap;fillColor=#d5e8d4;strokeColor=#82b366;rounded=0;labelBackgroundColor=default;" parent="1" vertex="1"><mxGeometry x="160" y="759" width="120" height="20" as="geometry"/></mxCell><mxCell id="aY1j8prLThrJ-g-cgl9k-46" style="edgeStyle=orthogonalEdgeStyle;rounded=0;orthogonalLoop=1;jettySize=auto;html=1;exitX=0.5;exitY=0;exitDx=0;exitDy=0;entryX=0.5;entryY=1;entryDx=0;entryDy=0;labelBackgroundColor=default;" parent="1" source="aY1j8prLThrJ-g-cgl9k-25" target="aY1j8prLThrJ-g-cgl9k-26" edge="1"><mxGeometry relative="1" as="geometry"/></mxCell><mxCell id="aY1j8prLThrJ-g-cgl9k-25" value="TreeMap" style="html=1;whiteSpace=wrap;fillColor=#d5e8d4;strokeColor=#82b366;rounded=0;labelBackgroundColor=default;" parent="1" vertex="1"><mxGeometry x="640" y="819" width="120" height="20" as="geometry"/></mxCell><mxCell id="aY1j8prLThrJ-g-cgl9k-45" style="edgeStyle=orthogonalEdgeStyle;rounded=0;orthogonalLoop=1;jettySize=auto;html=1;exitX=0.5;exitY=0;exitDx=0;exitDy=0;entryX=1;entryY=0.5;entryDx=0;entryDy=0;dashed=1;labelBackgroundColor=default;" parent="1" source="aY1j8prLThrJ-g-cgl9k-26" target="aY1j8prLThrJ-g-cgl9k-23" edge="1"><mxGeometry relative="1" as="geometry"/></mxCell><mxCell id="aY1j8prLThrJ-g-cgl9k-26" value="SortedMap" style="html=1;whiteSpace=wrap;fillColor=#dae8fc;strokeColor=#6c8ebf;rounded=0;labelBackgroundColor=default;" parent="1" vertex="1"><mxGeometry x="640" y="759" width="120" height="20" as="geometry"/></mxCell></root></mxGraphModel></diagram></mxfile>